<svg width="75" height="75" viewBox="0 0 75 75" fill="none" xmlns="http://www.w3.org/2000/svg">
<path d="M15.625 39.5585C15.625 38.5494 15.625 38.0448 15.8467 37.6141C16.0683 37.1833 16.4789 36.8901 17.3 36.3035L36.3375 22.7053C36.8989 22.3044 37.1795 22.1039 37.5 22.1039C37.8205 22.1039 38.1011 22.3044 38.6625 22.7053L57.7 36.3035C58.5211 36.8901 58.9317 37.1833 59.1533 37.6141C59.375 38.0448 59.375 38.5494 59.375 39.5585V63.625C59.375 64.5678 59.375 65.0392 59.0821 65.3321C58.7892 65.625 58.3178 65.625 57.375 65.625H17.625C16.6822 65.625 16.2108 65.625 15.9179 65.3321C15.625 65.0392 15.625 64.5678 15.625 63.625V39.5585Z" fill="#7E869E" fill-opacity="0.25"/>
<path d="M9.375 40.0116C9.375 40.2785 9.375 40.4119 9.4591 40.4531C9.54319 40.4942 9.64852 40.4123 9.85918 40.2484L36.2721 19.705C36.862 19.2462 37.1569 19.0169 37.5 19.0169C37.8431 19.0169 38.138 19.2462 38.7279 19.705L65.1408 40.2484C65.3515 40.4123 65.4568 40.4942 65.5409 40.4531C65.625 40.4119 65.625 40.2785 65.625 40.0116V35.3532C65.625 34.8728 65.625 34.6326 65.5233 34.4247C65.4216 34.2168 65.232 34.0694 64.8529 33.7745L38.7279 13.455C38.138 12.9962 37.8431 12.7669 37.5 12.7669C37.1569 12.7669 36.862 12.9962 36.2721 13.455L10.1471 33.7745C9.76795 34.0694 9.57837 34.2168 9.47668 34.4247C9.375 34.6326 9.375 34.8728 9.375 35.3532V40.0116Z" fill="#222222"/>
<path d="M43.3125 46.875H31.6875C30.5829 46.875 29.6875 47.7704 29.6875 48.875V65.475C29.6875 65.5578 29.7547 65.625 29.8375 65.625H45.1625C45.2453 65.625 45.3125 65.5578 45.3125 65.475V48.875C45.3125 47.7704 44.4171 46.875 43.3125 46.875Z" fill="#222222"/>
<rect x="50" y="15.625" width="6.25" height="12.5" rx="0.5" fill="#222222"/>
</svg>
