<svg width="38" height="39" viewBox="0 0 38 39" fill="none" xmlns="http://www.w3.org/2000/svg">
<path d="M18.8753 19.371C19.7404 19.371 20.4812 19.0546 21.0978 18.4218C21.7144 17.789 22.0222 17.0293 22.0212 16.1425C22.0212 15.2547 21.7129 14.4943 21.0963 13.8616C20.4797 13.2288 19.7393 12.9129 18.8753 12.914C18.0102 12.914 17.2693 13.2304 16.6527 13.8632C16.0361 14.496 15.7283 15.2557 15.7294 16.1425C15.7294 17.0303 16.0377 17.7906 16.6543 18.4234C17.2709 19.0562 18.0112 19.3721 18.8753 19.371ZM18.8753 35.5135C14.6545 31.8276 11.5024 28.4043 9.41875 25.2436C7.33513 22.0829 6.2928 19.1568 6.29175 16.4653C6.29175 12.4297 7.55692 9.21468 10.0873 6.82021C12.6176 4.42575 15.5469 3.22852 18.8753 3.22852C22.2047 3.22852 25.1345 4.42575 27.6649 6.82021C30.1952 9.21468 31.4598 12.4297 31.4588 16.4653C31.4588 19.1558 30.4165 22.0818 28.3318 25.2436C26.2471 28.4054 23.0949 31.8287 18.8753 35.5135Z" fill="#544C4C"/>
</svg>
